<mxfile host="app.diagrams.net" agent="Mozilla/5.0 (Windows NT 10.0; Win64; x64) AppleWebKit/537.36 (KHTML, like Gecko) Chrome/131.0.0.0 Safari/537.36" version="25.0.3">
  <diagram name="Page-1" id="8daTaE_icOzPpmiWqw-C">
    <mxGraphModel dx="1878" dy="1003" grid="1" gridSize="10" guides="1" tooltips="1" connect="1" arrows="1" fold="1" page="1" pageScale="1" pageWidth="850" pageHeight="1100" math="0" shadow="0">
      <root>
        <mxCell id="0" />
        <mxCell id="1" parent="0" />
        <mxCell id="wNzQ1rud5GPgGJtNEiYY-56" value="" style="rounded=0;whiteSpace=wrap;html=1;fillColor=none;" parent="1" vertex="1">
          <mxGeometry x="160" y="500" width="640" height="250" as="geometry" />
        </mxCell>
        <mxCell id="wNzQ1rud5GPgGJtNEiYY-55" value="" style="rounded=0;whiteSpace=wrap;html=1;fillColor=none;" parent="1" vertex="1">
          <mxGeometry x="40" y="790" width="760" height="250" as="geometry" />
        </mxCell>
        <mxCell id="wNzQ1rud5GPgGJtNEiYY-57" value="" style="rounded=0;whiteSpace=wrap;html=1;fillColor=none;" parent="1" vertex="1">
          <mxGeometry x="160" y="160" width="640" height="280" as="geometry" />
        </mxCell>
        <mxCell id="wNzQ1rud5GPgGJtNEiYY-1" value="User" style="shape=umlActor;verticalLabelPosition=bottom;verticalAlign=top;html=1;outlineConnect=0;" parent="1" vertex="1">
          <mxGeometry x="105" y="230" width="30" height="60" as="geometry" />
        </mxCell>
        <mxCell id="wNzQ1rud5GPgGJtNEiYY-2" value="Admin" style="shape=umlActor;verticalLabelPosition=bottom;verticalAlign=top;html=1;outlineConnect=0;" parent="1" vertex="1">
          <mxGeometry x="100" y="540" width="30" height="60" as="geometry" />
        </mxCell>
        <mxCell id="wNzQ1rud5GPgGJtNEiYY-6" value="ask question" style="ellipse;whiteSpace=wrap;html=1;" parent="1" vertex="1">
          <mxGeometry x="440" y="240" width="120" height="40" as="geometry" />
        </mxCell>
        <mxCell id="wNzQ1rud5GPgGJtNEiYY-7" value="" style="endArrow=classic;html=1;rounded=0;entryX=0;entryY=0.5;entryDx=0;entryDy=0;" parent="1" source="wNzQ1rud5GPgGJtNEiYY-1" target="wNzQ1rud5GPgGJtNEiYY-6" edge="1">
          <mxGeometry width="50" height="50" relative="1" as="geometry">
            <mxPoint x="180" y="450" as="sourcePoint" />
            <mxPoint x="230" y="400" as="targetPoint" />
          </mxGeometry>
        </mxCell>
        <mxCell id="wNzQ1rud5GPgGJtNEiYY-11" value="text message" style="ellipse;whiteSpace=wrap;html=1;" parent="1" vertex="1">
          <mxGeometry x="440" y="380" width="120" height="40" as="geometry" />
        </mxCell>
        <mxCell id="wNzQ1rud5GPgGJtNEiYY-12" value="voice message&amp;nbsp;" style="ellipse;whiteSpace=wrap;html=1;" parent="1" vertex="1">
          <mxGeometry x="310" y="380" width="120" height="40" as="geometry" />
        </mxCell>
        <mxCell id="wNzQ1rud5GPgGJtNEiYY-13" value="voice chat" style="ellipse;whiteSpace=wrap;html=1;" parent="1" vertex="1">
          <mxGeometry x="570" y="380" width="120" height="40" as="geometry" />
        </mxCell>
        <mxCell id="wNzQ1rud5GPgGJtNEiYY-28" value="login" style="ellipse;whiteSpace=wrap;html=1;" parent="1" vertex="1">
          <mxGeometry x="620" y="550" width="120" height="40" as="geometry" />
        </mxCell>
        <mxCell id="wNzQ1rud5GPgGJtNEiYY-29" value="sytem" style="rounded=0;whiteSpace=wrap;html=1;" parent="1" vertex="1">
          <mxGeometry x="105" y="870" width="120" height="60" as="geometry" />
        </mxCell>
        <mxCell id="wNzQ1rud5GPgGJtNEiYY-37" value="include" style="endArrow=open;endSize=12;dashed=1;html=1;rounded=0;entryX=1;entryY=0.5;entryDx=0;entryDy=0;" parent="1" source="wNzQ1rud5GPgGJtNEiYY-28" target="wNzQ1rud5GPgGJtNEiYY-45" edge="1">
          <mxGeometry width="160" relative="1" as="geometry">
            <mxPoint x="700" y="682" as="sourcePoint" />
            <mxPoint x="597.2019121710498" y="593.9636173085826" as="targetPoint" />
          </mxGeometry>
        </mxCell>
        <mxCell id="wNzQ1rud5GPgGJtNEiYY-40" value="answer question" style="ellipse;whiteSpace=wrap;html=1;" parent="1" vertex="1">
          <mxGeometry x="425" y="880" width="120" height="40" as="geometry" />
        </mxCell>
        <mxCell id="wNzQ1rud5GPgGJtNEiYY-41" value="" style="endArrow=classic;html=1;rounded=0;" parent="1" source="wNzQ1rud5GPgGJtNEiYY-29" target="wNzQ1rud5GPgGJtNEiYY-40" edge="1">
          <mxGeometry width="50" height="50" relative="1" as="geometry">
            <mxPoint x="235" y="890" as="sourcePoint" />
            <mxPoint x="540" y="890" as="targetPoint" />
          </mxGeometry>
        </mxCell>
        <mxCell id="wNzQ1rud5GPgGJtNEiYY-42" value="send feedback" style="ellipse;whiteSpace=wrap;html=1;" parent="1" vertex="1">
          <mxGeometry x="430" y="170" width="120" height="40" as="geometry" />
        </mxCell>
        <mxCell id="wNzQ1rud5GPgGJtNEiYY-43" value="" style="endArrow=classic;html=1;rounded=0;entryX=0;entryY=0.5;entryDx=0;entryDy=0;" parent="1" source="wNzQ1rud5GPgGJtNEiYY-1" target="wNzQ1rud5GPgGJtNEiYY-42" edge="1">
          <mxGeometry width="50" height="50" relative="1" as="geometry">
            <mxPoint x="145" y="270" as="sourcePoint" />
            <mxPoint x="450" y="270" as="targetPoint" />
          </mxGeometry>
        </mxCell>
        <mxCell id="wNzQ1rud5GPgGJtNEiYY-45" value="handle docs" style="ellipse;whiteSpace=wrap;html=1;" parent="1" vertex="1">
          <mxGeometry x="350" y="550" width="120" height="40" as="geometry" />
        </mxCell>
        <mxCell id="wNzQ1rud5GPgGJtNEiYY-46" value="update doc" style="ellipse;whiteSpace=wrap;html=1;" parent="1" vertex="1">
          <mxGeometry x="350" y="690" width="120" height="40" as="geometry" />
        </mxCell>
        <mxCell id="wNzQ1rud5GPgGJtNEiYY-47" value="create doc" style="ellipse;whiteSpace=wrap;html=1;" parent="1" vertex="1">
          <mxGeometry x="220" y="690" width="120" height="40" as="geometry" />
        </mxCell>
        <mxCell id="wNzQ1rud5GPgGJtNEiYY-48" value="delete doc" style="ellipse;whiteSpace=wrap;html=1;" parent="1" vertex="1">
          <mxGeometry x="480" y="690" width="120" height="40" as="geometry" />
        </mxCell>
        <mxCell id="wNzQ1rud5GPgGJtNEiYY-54" value="" style="endArrow=classic;html=1;rounded=0;entryX=0;entryY=0.5;entryDx=0;entryDy=0;" parent="1" source="wNzQ1rud5GPgGJtNEiYY-2" target="wNzQ1rud5GPgGJtNEiYY-45" edge="1">
          <mxGeometry width="50" height="50" relative="1" as="geometry">
            <mxPoint x="175" y="590" as="sourcePoint" />
            <mxPoint x="480" y="590" as="targetPoint" />
          </mxGeometry>
        </mxCell>
        <mxCell id="qs0ZDDEeKJjsel1H9Zng-2" value="" style="endArrow=block;endSize=16;endFill=0;html=1;rounded=0;" edge="1" parent="1" source="wNzQ1rud5GPgGJtNEiYY-12" target="wNzQ1rud5GPgGJtNEiYY-6">
          <mxGeometry width="160" relative="1" as="geometry">
            <mxPoint x="225" y="330" as="sourcePoint" />
            <mxPoint x="430" y="310" as="targetPoint" />
          </mxGeometry>
        </mxCell>
        <mxCell id="qs0ZDDEeKJjsel1H9Zng-3" value="" style="endArrow=block;endSize=16;endFill=0;html=1;rounded=0;" edge="1" parent="1" source="wNzQ1rud5GPgGJtNEiYY-11" target="wNzQ1rud5GPgGJtNEiYY-6">
          <mxGeometry width="160" relative="1" as="geometry">
            <mxPoint x="398" y="391" as="sourcePoint" />
            <mxPoint x="492" y="289" as="targetPoint" />
          </mxGeometry>
        </mxCell>
        <mxCell id="qs0ZDDEeKJjsel1H9Zng-5" value="" style="endArrow=block;endSize=16;endFill=0;html=1;rounded=0;" edge="1" parent="1" source="wNzQ1rud5GPgGJtNEiYY-13" target="wNzQ1rud5GPgGJtNEiYY-6">
          <mxGeometry width="160" relative="1" as="geometry">
            <mxPoint x="510" y="390" as="sourcePoint" />
            <mxPoint x="510" y="290" as="targetPoint" />
          </mxGeometry>
        </mxCell>
        <mxCell id="qs0ZDDEeKJjsel1H9Zng-6" value="" style="endArrow=block;endSize=16;endFill=0;html=1;rounded=0;" edge="1" parent="1" source="wNzQ1rud5GPgGJtNEiYY-47" target="wNzQ1rud5GPgGJtNEiYY-45">
          <mxGeometry width="160" relative="1" as="geometry">
            <mxPoint x="639" y="702" as="sourcePoint" />
            <mxPoint x="545" y="600" as="targetPoint" />
          </mxGeometry>
        </mxCell>
        <mxCell id="qs0ZDDEeKJjsel1H9Zng-7" value="" style="endArrow=block;endSize=16;endFill=0;html=1;rounded=0;" edge="1" parent="1" source="wNzQ1rud5GPgGJtNEiYY-46" target="wNzQ1rud5GPgGJtNEiYY-45">
          <mxGeometry width="160" relative="1" as="geometry">
            <mxPoint x="494" y="702" as="sourcePoint" />
            <mxPoint x="400" y="600" as="targetPoint" />
          </mxGeometry>
        </mxCell>
        <mxCell id="qs0ZDDEeKJjsel1H9Zng-8" value="" style="endArrow=block;endSize=16;endFill=0;html=1;rounded=0;" edge="1" parent="1" source="wNzQ1rud5GPgGJtNEiYY-48" target="wNzQ1rud5GPgGJtNEiYY-45">
          <mxGeometry width="160" relative="1" as="geometry">
            <mxPoint x="649" y="712" as="sourcePoint" />
            <mxPoint x="555" y="610" as="targetPoint" />
          </mxGeometry>
        </mxCell>
      </root>
    </mxGraphModel>
  </diagram>
</mxfile>
